<svg xmlns="http://www.w3.org/2000/svg" viewBox="0 0 24 24" role="img" aria-label="붕어빵">
  <defs>
    <pattern id="g" width="1.55" height="1.55" patternUnits="userSpaceOnUse" patternTransform="rotate(12)">
      <path d="M0 0V1.55M0 0H1.55" stroke="#b06020" stroke-width="0.16" fill="none" opacity="0.45"/>
    </pattern>
    <clipPath id="c">
      <path d="M2.4 12C2.4 9 5.4 6.5 9.8 6.5C13.5 6.5 16.6 8.5 17.9 10.8C18.2 11.3 18.2 12.7 17.9 13.2C16.6 15.5 13.5 17.5 9.8 17.5C5.4 17.5 2.4 15 2.4 12Z"/>
    </clipPath>
  </defs>
  <rect width="24" height="24" rx="6" fill="#f2e4cd"/>
  <g transform="translate(12 12) scale(0.88) translate(-12 -12)" stroke-linecap="round" stroke-linejoin="round">
    <g fill="#e99c33" stroke="#b06020" stroke-width="0.95">
      <path d="M17.9 10.8L21.4 8C21.8 7.7 22.1 8 22 8.4C21.5 10.5 21.5 13.5 22 15.6C22.1 16 21.8 16.3 21.4 16L17.9 13.2Z"/>
      <path d="M9 7.3C10 5.3 12.8 4.9 14.4 5.9C12.7 6.1 10.6 6.5 9.4 7.4Z"/>
      <path d="M2.4 12C2.4 9 5.4 6.5 9.8 6.5C13.5 6.5 16.6 8.5 17.9 10.8C18.2 11.3 18.2 12.7 17.9 13.2C16.6 15.5 13.5 17.5 9.8 17.5C5.4 17.5 2.4 15 2.4 12Z"/>
    </g>
    <path d="M4.4 10.8C6 8.2 9.4 7.3 13.2 7.9C9.6 8.4 6.6 9.4 4.4 10.8Z" fill="#f5bf6a"/>
    <g clip-path="url(#c)"><rect width="24" height="24" fill="url(#g)"/></g>
    <path d="M8.2 14C9.4 14.9 11 15 12 14.4C11.4 15.9 9.2 15.9 8.2 14.9Z" fill="#b06020" opacity="0.9"/>
    <g fill="none" stroke="#b06020" stroke-width="0.8" opacity="0.6">
      <path d="M9 10.2C10 11 10 13 9 13.8"/>
      <path d="M11.6 9.8C12.7 10.8 12.7 13.2 11.6 14.2"/>
      <path d="M14 10.4C14.9 11.2 14.9 12.8 14 13.6"/>
      <path d="M2.9 13C3.6 13.5 4.3 13.6 4.9 13.4"/>
    </g>
    <circle cx="6" cy="10.4" r="0.85" fill="#b06020"/>
  </g>
</svg>
