<svg xmlns="http://www.w3.org/2000/svg" viewBox="0 0 24 24" role="img" aria-label="DGIST LMS AutoSaver">
  <rect width="24" height="24" rx="6" fill="#f2e4cd"/>
  <g transform="translate(12 12) scale(0.88) translate(-12 -12)" stroke-linecap="round" stroke-linejoin="round">
    <g fill="#eba43f" stroke="#bf6d27" stroke-width="0.95">
      <path d="M17.5 10.3L21.3 7.5C21.7 7.3 22 7.6 21.9 8C21.4 10.3 21.4 13.7 21.9 16C22 16.4 21.7 16.7 21.3 16.5L17.5 13.7Z"/>
      <path d="M10.2 6C10.9 4.2 13 3.7 14.1 4.7C12.7 4.9 11.3 5.3 10.2 6Z"/>
      <path d="M3.2 12C3.2 8.5 6.5 5.9 10.5 5.9C14 5.9 16.6 7.8 17.5 10.3C17.8 11 17.8 13 17.5 13.7C16.6 16.2 14 18.1 10.5 18.1C6.5 18.1 3.2 15.5 3.2 12Z"/>
    </g>
    <path d="M9.9 13.9C11.1 14.7 12.7 14.6 13.6 13.8C13.1 15.7 10.9 16 9.9 14.9Z" fill="#bf6d27" opacity="0.9"/>
    <g fill="none" stroke="#bf6d27" stroke-width="0.8" opacity="0.72">
      <path d="M8.3 8.6C9.6 10 9.6 14 8.3 15.4"/>
      <path d="M11.3 8C12.7 9.7 12.7 14.3 11.3 16"/>
      <path d="M14.1 8.9C15.2 10.2 15.2 13.8 14.1 15.1"/>
      <path d="M3.6 13.4C4.3 13.9 5 14 5.6 13.8"/>
    </g>
    <circle cx="6.4" cy="10.2" r="0.92" fill="#bf6d27"/>
  </g>
</svg>
